<svg width="24" height="23" viewBox="0 0 24 23" fill="none" xmlns="http://www.w3.org/2000/svg">
<rect x="0.470703" width="22.9412" height="22.9412" rx="11.4706" fill="#2D2D2D"/>
<g clip-path="url(#clip0_1520_5251)">
<path d="M14.7465 5.35303H9.13522C7.30896 5.35303 5.82324 6.83875 5.82324 8.665V14.2764C5.82324 16.1026 7.30896 17.5883 9.13522 17.5883H14.7466C16.5728 17.5883 18.0585 16.1026 18.0585 14.2764V8.665C18.0585 6.83875 16.5728 5.35303 14.7465 5.35303V5.35303ZM11.9409 14.8162C10.0961 14.8162 8.59539 13.3154 8.59539 11.4707C8.59539 9.62593 10.0961 8.12517 11.9409 8.12517C13.7856 8.12517 15.2864 9.62593 15.2864 11.4707C15.2864 13.3154 13.7856 14.8162 11.9409 14.8162ZM15.3664 8.91415C14.8212 8.91415 14.3778 8.47075 14.3778 7.9256C14.3778 7.38045 14.8212 6.93695 15.3664 6.93695C15.9115 6.93695 16.355 7.38045 16.355 7.9256C16.355 8.47075 15.9115 8.91415 15.3664 8.91415Z" fill="white"/>
<path d="M11.9417 8.84253C10.4926 8.84253 9.31348 10.0215 9.31348 11.4708C9.31348 12.9199 10.4926 14.099 11.9417 14.099C13.3909 14.099 14.5699 12.9199 14.5699 11.4708C14.5699 10.0215 13.3909 8.84253 11.9417 8.84253Z" fill="white"/>
<path d="M15.366 7.6543C15.2165 7.6543 15.0947 7.77602 15.0947 7.92556C15.0947 8.0751 15.2165 8.19682 15.366 8.19682C15.5156 8.19682 15.6374 8.07519 15.6374 7.92556C15.6374 7.77593 15.5156 7.6543 15.366 7.6543Z" fill="white"/>
</g>
<defs>
<clipPath id="clip0_1520_5251">
<rect width="12.2353" height="12.2353" fill="white" transform="translate(5.82324 5.35303)"/>
</clipPath>
</defs>
</svg>
