<svg width="24" height="23" viewBox="0 0 24 23" fill="none" xmlns="http://www.w3.org/2000/svg">
<mask id="mask0_1520_5245" style="mask-type:alpha" maskUnits="userSpaceOnUse" x="0" y="0" width="24" height="23">
<g clip-path="url(#clip0_1520_5245)">
<path d="M21.8159 0H2.18383C1.27001 0 0.529297 0.740716 0.529297 1.65453V21.2866C0.529297 22.2005 1.27001 22.9412 2.18383 22.9412H21.8159C22.7298 22.9412 23.4705 22.2005 23.4705 21.2866V1.65453C23.4705 0.740716 22.7298 0 21.8159 0V0ZM8.66667 17.3403H5.87305V8.93567H8.66667V17.3403ZM7.26995 7.78801H7.25175C6.3143 7.78801 5.708 7.14269 5.708 6.33616C5.708 5.51143 6.33285 4.88396 7.2885 4.88396C8.24415 4.88396 8.83224 5.51143 8.85044 6.33616C8.85044 7.14269 8.24415 7.78801 7.26995 7.78801ZM18.7398 17.3403H15.9466V12.844C15.9466 11.7141 15.5421 10.9434 14.5313 10.9434C13.7596 10.9434 13.3 11.4632 13.098 11.965C13.0241 12.1446 13.0061 12.3956 13.0061 12.6468V17.3403H10.2127C10.2127 17.3403 10.2493 9.72417 10.2127 8.93567H13.0061V10.1257C13.3774 9.55299 14.0416 8.73841 15.5237 8.73841C17.3617 8.73841 18.7398 9.93962 18.7398 12.5211V17.3403Z" fill="white"/>
</g>
</mask>
<g mask="url(#mask0_1520_5245)">
<circle cx="11.9999" cy="11.4706" r="11.4706" fill="#2D2D2D"/>
</g>
<defs>
<clipPath id="clip0_1520_5245">
<rect width="22.9412" height="22.9412" fill="white" transform="translate(0.529297)"/>
</clipPath>
</defs>
</svg>
