<svg width="24" height="23" viewBox="0 0 24 23" fill="none" xmlns="http://www.w3.org/2000/svg">
<rect x="0.941406" width="22.9412" height="22.9412" rx="11.4706" fill="white"/>
<g clip-path="url(#clip0_1610_740)">
<path d="M15.2177 5.35254H9.60641C7.78016 5.35254 6.29443 6.83826 6.29443 8.66452V14.2759C6.29443 16.1021 7.78016 17.5878 9.60641 17.5878H15.2178C17.044 17.5878 18.5297 16.1021 18.5297 14.2759V8.66452C18.5297 6.83826 17.044 5.35254 15.2177 5.35254V5.35254ZM12.4121 14.8157C10.5673 14.8157 9.06658 13.3149 9.06658 11.4702C9.06658 9.62544 10.5673 8.12469 12.4121 8.12469C14.2568 8.12469 15.7576 9.62544 15.7576 11.4702C15.7576 13.3149 14.2568 14.8157 12.4121 14.8157ZM15.8376 8.91366C15.2924 8.91366 14.849 8.47026 14.849 7.92511C14.849 7.37996 15.2924 6.93646 15.8376 6.93646C16.3827 6.93646 16.8262 7.37996 16.8262 7.92511C16.8262 8.47026 16.3827 8.91366 15.8376 8.91366Z" fill="#014131"/>
<path d="M12.4129 8.8418C10.9638 8.8418 9.78467 10.0208 9.78467 11.47C9.78467 12.9192 10.9638 14.0982 12.4129 14.0982C13.8621 14.0982 15.0411 12.9192 15.0411 11.47C15.0411 10.0208 13.8621 8.8418 12.4129 8.8418Z" fill="#014131"/>
<path d="M15.8372 7.6543C15.6876 7.6543 15.5659 7.77602 15.5659 7.92556C15.5659 8.0751 15.6876 8.19682 15.8372 8.19682C15.9868 8.19682 16.1085 8.07519 16.1085 7.92556C16.1085 7.77593 15.9868 7.6543 15.8372 7.6543Z" fill="#014131"/>
</g>
<defs>
<clipPath id="clip0_1610_740">
<rect width="12.2353" height="12.2353" fill="white" transform="translate(6.29443 5.35254)"/>
</clipPath>
</defs>
</svg>
