<svg width="23" height="23" viewBox="0 0 23 23" fill="none" xmlns="http://www.w3.org/2000/svg">
<mask id="mask0_1610_734" style="mask-type:alpha" maskUnits="userSpaceOnUse" x="0" y="0" width="23" height="23">
<g clip-path="url(#clip0_1610_734)">
<path d="M21.2866 0H1.65453C0.740716 0 0 0.740716 0 1.65453V21.2866C0 22.2005 0.740716 22.9412 1.65453 22.9412H21.2866C22.2005 22.9412 22.9412 22.2005 22.9412 21.2866V1.65453C22.9412 0.740716 22.2005 0 21.2866 0V0ZM8.13737 17.3403H5.34376V8.93567H8.13737V17.3403ZM6.74065 7.78801H6.72245C5.785 7.78801 5.17871 7.14269 5.17871 6.33616C5.17871 5.51143 5.80356 4.88396 6.7592 4.88396C7.71485 4.88396 8.30295 5.51143 8.32115 6.33616C8.32115 7.14269 7.71485 7.78801 6.74065 7.78801ZM18.2105 17.3403H15.4173V12.844C15.4173 11.7141 15.0128 10.9434 14.002 10.9434C13.2303 10.9434 12.7707 11.4632 12.5687 11.965C12.4948 12.1446 12.4768 12.3956 12.4768 12.6468V17.3403H9.68338C9.68338 17.3403 9.71997 9.72417 9.68338 8.93567H12.4768V10.1257C12.8481 9.55299 13.5123 8.73841 14.9944 8.73841C16.8324 8.73841 18.2105 9.93962 18.2105 12.5211V17.3403Z" fill="white"/>
</g>
</mask>
<g mask="url(#mask0_1610_734)">
<circle cx="11.4706" cy="11.4706" r="11.4706" fill="white"/>
</g>
<defs>
<clipPath id="clip0_1610_734">
<rect width="22.9412" height="22.9412" fill="white"/>
</clipPath>
</defs>
</svg>
