<svg width="21" height="14" viewBox="0 0 21 14" fill="none" xmlns="http://www.w3.org/2000/svg">
<g clip-path="url(#clip0_206_4150)">
<path d="M0 0H21V14.0002H0V0Z" fill="#D80027"/>
<path d="M10.5 10.9373C12.6746 10.9373 14.4375 9.17438 14.4375 6.99976C14.4375 4.82514 12.6746 3.06226 10.5 3.06226C8.32538 3.06226 6.5625 4.82514 6.5625 6.99976C6.5625 9.17438 8.32538 10.9373 10.5 10.9373Z" fill="white"/>
<path d="M10.9851 5.49438L11.6607 6.42523L12.7547 6.07049L12.0781 7.00056L12.7535 7.93141L11.6599 7.57536L10.9833 8.50543L10.984 7.35535L9.89038 6.99925L10.9844 6.64455L10.9851 5.49438Z" fill="#D80027"/>
<path d="M11.395 9.32652C10.11 9.32652 9.06829 8.28484 9.06829 6.99982C9.06829 5.7148 10.11 4.67313 11.395 4.67313C11.7957 4.67313 12.1726 4.77443 12.5018 4.95281C11.9854 4.44791 11.2794 4.13623 10.5001 4.13623C8.91862 4.13623 7.63647 5.41834 7.63647 6.99986C7.63647 8.58139 8.91862 9.86349 10.5001 9.86349C11.2794 9.86349 11.9855 9.55182 12.5018 9.04691C12.1726 9.22521 11.7957 9.32652 11.395 9.32652Z" fill="#D80027"/>
</g>
<defs>
<clipPath id="clip0_206_4150">
<rect width="21" height="14" fill="white"/>
</clipPath>
</defs>
</svg>
